<?xml version="1.0" encoding="UTF-8"?>
<svg width="152px" height="12px" viewBox="0 0 152 12" version="1.1"
     xmlns="http://www.w3.org/2000/svg"
     xmlns:xlink="http://www.w3.org/1999/xlink">
    <path d="M20.8109936,1.51946686 C21.2852647,1.51946686 21.7448745,1.59077413 22.1893787,1.73316653 C22.6336608,1.87533679 23.0348475,2.08481578 23.3929388,2.36071494 C23.750808,2.63705839 24.0464777,2.97782273 24.2795037,3.38345225 C24.5125296,3.78885963 24.6546999,4.25468937 24.7066809,4.78116361 L22.7653904,4.78116361 C22.6443236,4.26335287 22.4115198,3.87505035 22.0663126,3.61603391 C21.7211054,3.35723961 21.3028139,3.22795353 20.8109936,3.22795353 C20.3533831,3.22795353 19.9653027,3.3165878 19.6460861,3.49318992 C19.3268694,3.67023632 19.0680751,3.90748294 18.8697032,4.20515192 C18.6711091,4.5028209 18.5267174,4.84136383 18.4360839,5.22100285 C18.3454503,5.60086401 18.3001336,5.99338721 18.3001336,6.39879459 C18.3001336,6.78709711 18.3454503,7.16473687 18.4360839,7.53126957 C18.5267174,7.89802441 18.6711091,8.22812598 18.8697032,8.52135214 C19.0680751,8.81480044 19.3268694,9.04982565 19.6460861,9.22664991 C19.9653027,9.40369631 20.3533831,9.4918863 20.8109936,9.4918863 C21.484081,9.4918863 22.0036688,9.32172627 22.3706458,8.98073979 C22.7371785,8.64019759 22.950656,8.1459338 23.0110784,7.49883697 L20.9662702,7.49883697 L20.9662702,5.98472371 L24.8488512,5.98472371 L24.8488512,10.9804533 L23.5546575,10.9804533 L23.3476221,9.93216982 C22.98531,10.3979996 22.5839012,10.7238805 22.144062,10.9091461 C21.7040006,11.0946338 21.2594964,11.1874888 20.8109936,11.1874888 C20.1032523,11.1874888 19.4670404,11.0646448 18.9019136,10.8185125 C18.3367868,10.5726024 17.8600722,10.2342816 17.4717697,9.8026616 C17.0836893,9.37126372 16.7857982,8.86433789 16.5787627,8.28188411 C16.3717273,7.69943033 16.2682096,7.07188191 16.2682096,6.39879459 C16.2682096,5.70860241 16.3717273,5.06816982 16.5787627,4.4768304 C16.7857982,3.88593526 17.0836893,3.37012379 17.4717697,2.93028455 C17.8600722,2.49022316 18.3367868,2.14523814 18.9019136,1.8948852 C19.4670404,1.6447544 20.1032523,1.51946686 20.8109936,1.51946686 Z M93.8050256,1.51946686 C94.2792967,1.51946686 94.7386844,1.59077413 95.1831886,1.73316653 C95.6274707,1.87533679 96.0286574,2.08481578 96.3867487,2.36071494 C96.7446179,2.63705839 97.0402876,2.97782273 97.2733136,3.38345225 C97.5063395,3.78885963 97.6487319,4.25468937 97.7004908,4.78116361 L95.7592003,4.78116361 C95.6381334,4.26335287 95.4053296,3.87505035 95.0601225,3.61603391 C94.7151374,3.35723961 94.2966237,3.22795353 93.8050256,3.22795353 C93.347193,3.22795353 92.9591126,3.3165878 92.6401181,3.49318992 C92.3206793,3.67023632 92.061885,3.90748294 91.8637352,4.20515192 C91.664919,4.5028209 91.5205273,4.84136383 91.4301159,5.22100285 C91.3392602,5.60086401 91.2939434,5.99338721 91.2939434,6.39879459 C91.2939434,6.78709711 91.3392602,7.16473687 91.4301159,7.53126957 C91.5205273,7.89802441 91.664919,8.22812598 91.8637352,8.52135214 C92.061885,8.81480044 92.3206793,9.04982565 92.6401181,9.22664991 C92.9591126,9.40369631 93.347193,9.4918863 93.8050256,9.4918863 C94.4778908,9.4918863 94.9974787,9.32172627 95.3644557,8.98073979 C95.7312105,8.64019759 95.9446881,8.1459338 96.0048883,7.49883697 L93.9600801,7.49883697 L93.9600801,5.98472371 L97.8428832,5.98472371 L97.8428832,10.9804533 L96.5486895,10.9804533 L96.3414319,9.93216982 C95.9791199,10.3979996 95.5779332,10.7238805 95.1378718,10.9091461 C94.6980326,11.0946338 94.2535284,11.1874888 93.8050256,11.1874888 C93.0972843,11.1874888 92.4608503,11.0646448 91.8957235,10.8185125 C91.3305967,10.5726024 90.8538821,10.2342816 90.4658017,9.8026616 C90.0774992,9.37126372 89.7798302,8.86433789 89.5725726,8.28188411 C89.3657593,7.69943033 89.2622416,7.07188191 89.2622416,6.39879459 C89.2622416,5.70860241 89.3657593,5.06816982 89.5725726,4.4768304 C89.7798302,3.88593526 90.0774992,3.37012379 90.4658017,2.93028455 C90.8538821,2.49022316 91.3305967,2.14523814 91.8957235,1.8948852 C92.4608503,1.6447544 93.0972843,1.51946686 93.8050256,1.51946686 Z M129.370182,1.51964457 C129.879107,1.51964457 130.360043,1.59295111 130.81321,1.73956419 C131.266156,1.88639942 131.671563,2.09987695 132.029655,2.38021893 C132.387524,2.66056091 132.683194,3.00776734 132.916442,3.4222825 C133.149245,3.83613124 133.295859,4.31084662 133.356281,4.84576222 L131.389,4.84576222 C131.354568,4.61273628 131.276819,4.39925875 131.155974,4.20510749 C131.035129,4.01095623 130.884073,3.8407962 130.703251,3.69373884 C130.521983,3.54712576 130.316947,3.43294527 130.088142,3.35097523 C129.859559,3.26900519 129.620313,3.2279091 129.370182,3.2279091 C128.912572,3.2279091 128.524269,3.31654337 128.205275,3.49314549 C127.885836,3.67019189 127.627042,3.90743851 127.428892,4.20510749 C127.230076,4.50277647 127.085684,4.8413194 126.995272,5.22095842 C126.904417,5.60081958 126.8591,5.99334278 126.8591,6.39875016 C126.8591,6.78705269 126.904417,7.16469244 126.995272,7.53122514 C127.085684,7.89820212 127.230076,8.22808155 127.428892,8.52130771 C127.627042,8.81475601 127.885836,9.05000336 128.205275,9.22660548 C128.524269,9.40365188 128.912572,9.49184187 129.370182,9.49184187 C129.991289,9.49184187 130.476445,9.30235557 130.826095,8.92249441 C131.175522,8.54307753 131.389,8.04237165 131.466527,7.42126533 L133.43403,7.42126533 C133.382049,7.99949843 133.24832,8.52130771 133.032621,8.98735959 C132.817145,9.45318933 132.532138,9.85015535 132.178489,10.1780355 C131.824618,10.5059157 131.410548,10.7562686 130.936054,10.9286501 C130.461339,11.1010315 129.939308,11.1874444 129.370182,11.1874444 C128.662441,11.1874444 128.026007,11.0646004 127.46088,10.8184681 C126.895753,10.5727801 126.419261,10.2342372 126.030958,9.80261717 C125.642656,9.37121929 125.344987,8.86429346 125.137729,8.28183968 C124.930916,7.6993859 124.827398,7.07183749 124.827398,6.39875016 C124.827398,5.70855798 124.930916,5.06812539 125.137729,4.47678597 C125.344987,3.88589083 125.642656,3.3703015 126.030958,2.93024012 C126.419261,2.49017874 126.895753,2.14541586 127.46088,1.89484077 C128.026007,1.64493212 128.662441,1.51964457 129.370182,1.51964457 Z M58.6669352,1.73951977 L58.6669352,3.44800643 L53.7878296,3.44800643 L53.7878296,5.42817157 L58.2657485,5.42817157 L58.2657485,7.00715002 L53.7878296,7.00715002 L53.7878296,9.27209996 L58.7704529,9.27209996 L58.7704529,10.9803645 L51.7559056,10.9803645 L51.7559056,1.73951977 L58.6669352,1.73951977 Z M12.2952839,1.73963084 L12.2952839,10.9804756 L10.2631377,10.9804756 L10.2631377,1.73963084 L12.2952839,1.73963084 Z M31.1127839,1.73951977 L31.1127839,5.28577917 L34.8531946,5.28577917 L34.8531946,1.73951977 L36.8851186,1.73951977 L36.8851186,10.9803645 L34.8531946,10.9803645 L34.8531946,6.99426584 L31.1127839,6.99426584 L31.1127839,10.9803645 L29.0810821,10.9803645 L29.0810821,1.73951977 L31.1127839,1.73951977 Z M48.1061285,1.73951977 L48.1061285,3.44800643 L45.3364741,3.44800643 L45.3364741,10.9803645 L43.3045501,10.9803645 L43.3045501,3.44800643 L40.5348957,3.44800643 L40.5348957,1.73951977 L48.1061285,1.73951977 Z M2.031924,1.73956419 L2.031924,9.27192225 L6.53583339,9.27192225 L6.53583339,10.9804089 L0,10.9804089 L0,1.73956419 L2.031924,1.73956419 Z M64.7627072,1.73951977 L64.7627072,9.27209996 L69.2666166,9.27209996 L69.2666166,10.9803645 L62.7307832,10.9803645 L62.7307832,1.73951977 L64.7627072,1.73951977 Z M75.0258672,1.73951977 L75.0258672,9.27209996 L79.5295544,9.27209996 L79.5295544,10.9803645 L72.9939431,10.9803645 L72.9939431,1.73951977 L75.0258672,1.73951977 Z M85.2888272,1.73963084 L85.2888272,10.9804756 L83.2569032,10.9804756 L83.2569032,1.73963084 L85.2888272,1.73963084 Z M108.985899,1.73951977 L108.985899,3.44800643 L104.106794,3.44800643 L104.106794,5.42817157 L108.584713,5.42817157 L108.584713,7.00715002 L104.106794,7.00715002 L104.106794,9.27209996 L109.089417,9.27209996 L109.089417,10.9803645 L102.07487,10.9803645 L102.07487,1.73951977 L108.985899,1.73951977 Z M115.068965,1.73951977 L118.925555,7.93903164 L118.951768,7.93903164 L118.951768,1.73951977 L120.854184,1.73951977 L120.854184,10.9803645 L118.82226,10.9803645 L114.978331,4.79395893 L114.952563,4.79395893 L114.952563,10.9803645 L113.049925,10.9803645 L113.049925,1.73951977 L115.068965,1.73951977 Z M144.318474,1.73951977 L144.318474,3.44800643 L139.439147,3.44800643 L139.439147,5.42817157 L143.917065,5.42817157 L143.917065,7.00715002 L139.439147,7.00715002 L139.439147,9.27209996 L144.421992,9.27209996 L144.421992,10.9803645 L137.407445,10.9803645 L137.407445,1.73951977 L144.318474,1.73951977 Z M149.800537,0.222229887 C150.404983,0.222229887 150.921461,0.43637384 151.349749,0.864439605 C151.778037,1.29272751 151.992181,1.80920541 151.992181,2.41387329 C151.992181,3.0365346 151.772927,3.56078743 151.334865,3.98707607 C150.908577,4.39936982 150.396986,4.60573884 149.800537,4.60573884 C149.183652,4.60573884 148.664286,4.39448272 148.241996,3.97219262 C147.819706,3.54990252 147.60845,3.03053679 147.60845,2.41387329 C147.60845,1.7734407 147.836588,1.24119079 148.292422,0.816901425 C148.72071,0.420379686 149.223415,0.222229887 149.800537,0.222229887 Z M149.800537,0.596759664 C149.296721,0.596759664 148.867545,0.779359591 148.512786,1.14411516 C148.16358,1.50087366 147.989199,1.92427446 147.989199,2.41387329 C147.989199,2.92146555 148.16669,3.35264129 148.521671,3.70762265 C148.874431,4.06238188 149.30072,4.23987256 149.800537,4.23987256 C150.298133,4.23987256 150.723311,4.06127117 151.076293,3.70451268 C151.429053,3.34575491 151.605433,2.91546774 151.605433,2.41387329 C151.605433,1.92627373 151.429942,1.50287293 151.078959,1.14411516 C150.7242,0.779359591 150.298133,0.596759664 149.800537,0.596759664 Z M149.516197,1.2049818 C149.816754,1.20609251 149.983804,1.20742536 150.017347,1.20942463 C150.209721,1.22341951 150.36944,1.26495988 150.496061,1.33449003 C150.712204,1.45333548 150.820387,1.64659817 150.820387,1.91427811 C150.820387,2.11842572 150.763296,2.26592737 150.649338,2.35656091 C150.53538,2.44741659 150.394987,2.501619 150.228603,2.51961242 C150.381436,2.55137859 150.496061,2.59825035 150.573588,2.65978341 C150.716425,2.77551889 150.787732,2.95700811 150.787732,3.2049175 L150.787732,3.42217143 C150.787732,3.44571838 150.789287,3.46948747 150.792397,3.4934787 C150.795507,3.51724779 150.801505,3.54101688 150.809946,3.56478597 L150.83216,3.63320541 L150.225715,3.63320541 C150.205945,3.55590033 150.192394,3.44394125 150.185508,3.29710603 C150.178621,3.15027081 150.165071,3.05141805 150.1453,2.99965919 C150.113756,2.91457917 150.054222,2.85504538 149.966921,2.82127994 C149.919383,2.80150939 149.846965,2.78862521 149.749889,2.7826274 L149.60994,2.77374176 L149.476211,2.77374176 L149.476211,3.63320541 L148.839777,3.63320541 L148.839777,1.20342682 L149.191825,1.20405059 C149.288013,1.2043065 149.396152,1.20462638 149.516197,1.2049818 Z M149.630821,1.63171472 L149.476211,1.63171472 L149.476211,2.33656821 L149.72301,2.33656821 C149.871845,2.33656821 149.98758,2.30680132 150.070883,2.24726752 C150.154186,2.18795586 150.195948,2.0917688 150.195948,1.95892846 C150.195948,1.82608813 150.130417,1.7338996 149.999576,1.68236288 C149.912274,1.64859744 149.789652,1.63171472 149.630821,1.63171472 Z"></path>
</svg>
